<mxfile host="Electron" agent="Mozilla/5.0 (Windows NT 10.0; Win64; x64) AppleWebKit/537.36 (KHTML, like Gecko) draw.io/26.2.2 Chrome/134.0.6998.178 Electron/35.1.2 Safari/537.36" version="26.2.2">
  <diagram name="Page-1" id="saClSYcTLPcar7wQdpPn">
    <mxGraphModel dx="1894" dy="626" grid="1" gridSize="10" guides="1" tooltips="1" connect="1" arrows="1" fold="1" page="1" pageScale="1" pageWidth="850" pageHeight="1100" math="0" shadow="0">
      <root>
        <mxCell id="0" />
        <mxCell id="1" parent="0" />
        <mxCell id="bFcc6GtcCGzFVjIWoyIu-3" value="" style="edgeStyle=orthogonalEdgeStyle;rounded=0;orthogonalLoop=1;jettySize=auto;html=1;" edge="1" parent="1" source="bFcc6GtcCGzFVjIWoyIu-1" target="bFcc6GtcCGzFVjIWoyIu-2">
          <mxGeometry relative="1" as="geometry" />
        </mxCell>
        <mxCell id="bFcc6GtcCGzFVjIWoyIu-5" style="edgeStyle=orthogonalEdgeStyle;rounded=0;orthogonalLoop=1;jettySize=auto;html=1;exitX=1;exitY=0;exitDx=0;exitDy=0;" edge="1" parent="1" source="bFcc6GtcCGzFVjIWoyIu-1" target="bFcc6GtcCGzFVjIWoyIu-4">
          <mxGeometry relative="1" as="geometry" />
        </mxCell>
        <mxCell id="bFcc6GtcCGzFVjIWoyIu-8" style="edgeStyle=orthogonalEdgeStyle;rounded=0;orthogonalLoop=1;jettySize=auto;html=1;exitX=0;exitY=0.25;exitDx=0;exitDy=0;entryX=0.5;entryY=1;entryDx=0;entryDy=0;" edge="1" parent="1" source="bFcc6GtcCGzFVjIWoyIu-1" target="bFcc6GtcCGzFVjIWoyIu-6">
          <mxGeometry relative="1" as="geometry" />
        </mxCell>
        <mxCell id="bFcc6GtcCGzFVjIWoyIu-10" style="edgeStyle=orthogonalEdgeStyle;rounded=0;orthogonalLoop=1;jettySize=auto;html=1;exitX=0;exitY=0.5;exitDx=0;exitDy=0;" edge="1" parent="1" source="bFcc6GtcCGzFVjIWoyIu-1">
          <mxGeometry relative="1" as="geometry">
            <mxPoint x="-10" y="110" as="targetPoint" />
          </mxGeometry>
        </mxCell>
        <mxCell id="bFcc6GtcCGzFVjIWoyIu-12" value="" style="edgeStyle=orthogonalEdgeStyle;rounded=0;orthogonalLoop=1;jettySize=auto;html=1;" edge="1" parent="1" source="bFcc6GtcCGzFVjIWoyIu-1" target="bFcc6GtcCGzFVjIWoyIu-11">
          <mxGeometry relative="1" as="geometry" />
        </mxCell>
        <mxCell id="bFcc6GtcCGzFVjIWoyIu-13" value="" style="edgeStyle=orthogonalEdgeStyle;rounded=0;orthogonalLoop=1;jettySize=auto;html=1;" edge="1" parent="1" source="bFcc6GtcCGzFVjIWoyIu-1" target="bFcc6GtcCGzFVjIWoyIu-9">
          <mxGeometry relative="1" as="geometry" />
        </mxCell>
        <mxCell id="bFcc6GtcCGzFVjIWoyIu-15" value="" style="edgeStyle=orthogonalEdgeStyle;rounded=0;orthogonalLoop=1;jettySize=auto;html=1;" edge="1" parent="1" source="bFcc6GtcCGzFVjIWoyIu-1" target="bFcc6GtcCGzFVjIWoyIu-14">
          <mxGeometry relative="1" as="geometry" />
        </mxCell>
        <mxCell id="bFcc6GtcCGzFVjIWoyIu-1" value="doctor" style="rounded=0;whiteSpace=wrap;html=1;" vertex="1" parent="1">
          <mxGeometry x="80" y="80" width="125" height="60" as="geometry" />
        </mxCell>
        <mxCell id="bFcc6GtcCGzFVjIWoyIu-2" value="first name" style="whiteSpace=wrap;html=1;rounded=0;" vertex="1" parent="1">
          <mxGeometry x="110" y="10" width="90" height="20" as="geometry" />
        </mxCell>
        <mxCell id="bFcc6GtcCGzFVjIWoyIu-4" value="last name" style="whiteSpace=wrap;html=1;rounded=0;" vertex="1" parent="1">
          <mxGeometry x="205" y="10" width="90" height="20" as="geometry" />
        </mxCell>
        <mxCell id="bFcc6GtcCGzFVjIWoyIu-7" style="edgeStyle=orthogonalEdgeStyle;rounded=0;orthogonalLoop=1;jettySize=auto;html=1;exitX=0.25;exitY=0;exitDx=0;exitDy=0;" edge="1" parent="1" source="bFcc6GtcCGzFVjIWoyIu-6" target="bFcc6GtcCGzFVjIWoyIu-2">
          <mxGeometry relative="1" as="geometry" />
        </mxCell>
        <mxCell id="bFcc6GtcCGzFVjIWoyIu-6" value="email" style="whiteSpace=wrap;html=1;rounded=0;" vertex="1" parent="1">
          <mxGeometry x="-10" y="40" width="90" height="20" as="geometry" />
        </mxCell>
        <mxCell id="bFcc6GtcCGzFVjIWoyIu-9" value="phone&amp;nbsp;" style="whiteSpace=wrap;html=1;rounded=0;" vertex="1" parent="1">
          <mxGeometry x="-60" y="80" width="90" height="20" as="geometry" />
        </mxCell>
        <mxCell id="bFcc6GtcCGzFVjIWoyIu-17" value="" style="edgeStyle=orthogonalEdgeStyle;rounded=0;orthogonalLoop=1;jettySize=auto;html=1;" edge="1" parent="1" source="bFcc6GtcCGzFVjIWoyIu-11" target="bFcc6GtcCGzFVjIWoyIu-16">
          <mxGeometry relative="1" as="geometry" />
        </mxCell>
        <mxCell id="bFcc6GtcCGzFVjIWoyIu-11" value="doctos/Agent" style="ellipse;whiteSpace=wrap;html=1;rounded=0;" vertex="1" parent="1">
          <mxGeometry x="215" y="230" width="80" height="80" as="geometry" />
        </mxCell>
        <mxCell id="bFcc6GtcCGzFVjIWoyIu-14" value="workd at" style="ellipse;whiteSpace=wrap;html=1;rounded=0;" vertex="1" parent="1">
          <mxGeometry x="-50" y="300" width="80" height="80" as="geometry" />
        </mxCell>
        <mxCell id="bFcc6GtcCGzFVjIWoyIu-22" value="" style="edgeStyle=orthogonalEdgeStyle;rounded=0;orthogonalLoop=1;jettySize=auto;html=1;" edge="1" parent="1" source="bFcc6GtcCGzFVjIWoyIu-16" target="bFcc6GtcCGzFVjIWoyIu-21">
          <mxGeometry relative="1" as="geometry" />
        </mxCell>
        <mxCell id="bFcc6GtcCGzFVjIWoyIu-24" style="edgeStyle=orthogonalEdgeStyle;rounded=0;orthogonalLoop=1;jettySize=auto;html=1;exitX=0;exitY=0.75;exitDx=0;exitDy=0;entryX=1;entryY=0.5;entryDx=0;entryDy=0;" edge="1" parent="1" source="bFcc6GtcCGzFVjIWoyIu-16" target="bFcc6GtcCGzFVjIWoyIu-23">
          <mxGeometry relative="1" as="geometry" />
        </mxCell>
        <mxCell id="bFcc6GtcCGzFVjIWoyIu-26" style="edgeStyle=orthogonalEdgeStyle;rounded=0;orthogonalLoop=1;jettySize=auto;html=1;exitX=0;exitY=1;exitDx=0;exitDy=0;entryX=1;entryY=0.5;entryDx=0;entryDy=0;" edge="1" parent="1" source="bFcc6GtcCGzFVjIWoyIu-16" target="bFcc6GtcCGzFVjIWoyIu-25">
          <mxGeometry relative="1" as="geometry" />
        </mxCell>
        <mxCell id="bFcc6GtcCGzFVjIWoyIu-28" value="" style="edgeStyle=orthogonalEdgeStyle;rounded=0;orthogonalLoop=1;jettySize=auto;html=1;" edge="1" parent="1" source="bFcc6GtcCGzFVjIWoyIu-16" target="bFcc6GtcCGzFVjIWoyIu-27">
          <mxGeometry relative="1" as="geometry" />
        </mxCell>
        <mxCell id="bFcc6GtcCGzFVjIWoyIu-16" value="PT Check" style="whiteSpace=wrap;html=1;rounded=0;" vertex="1" parent="1">
          <mxGeometry x="195" y="400" width="120" height="60" as="geometry" />
        </mxCell>
        <mxCell id="bFcc6GtcCGzFVjIWoyIu-21" value="ssn/ sub id" style="ellipse;whiteSpace=wrap;html=1;rounded=0;" vertex="1" parent="1">
          <mxGeometry x="70" y="390" width="70" height="30" as="geometry" />
        </mxCell>
        <mxCell id="bFcc6GtcCGzFVjIWoyIu-23" value="DOB" style="ellipse;whiteSpace=wrap;html=1;rounded=0;" vertex="1" parent="1">
          <mxGeometry x="70" y="440" width="70" height="30" as="geometry" />
        </mxCell>
        <mxCell id="bFcc6GtcCGzFVjIWoyIu-25" value="Patient Relation" style="ellipse;whiteSpace=wrap;html=1;rounded=0;" vertex="1" parent="1">
          <mxGeometry x="40" y="480" width="100" height="30" as="geometry" />
        </mxCell>
        <mxCell id="bFcc6GtcCGzFVjIWoyIu-30" value="" style="edgeStyle=orthogonalEdgeStyle;rounded=0;orthogonalLoop=1;jettySize=auto;html=1;" edge="1" parent="1" source="bFcc6GtcCGzFVjIWoyIu-27" target="bFcc6GtcCGzFVjIWoyIu-29">
          <mxGeometry relative="1" as="geometry" />
        </mxCell>
        <mxCell id="bFcc6GtcCGzFVjIWoyIu-27" value="lives&amp;nbsp; in" style="whiteSpace=wrap;html=1;rounded=0;" vertex="1" parent="1">
          <mxGeometry x="175" y="550" width="120" height="60" as="geometry" />
        </mxCell>
        <mxCell id="bFcc6GtcCGzFVjIWoyIu-34" value="" style="edgeStyle=orthogonalEdgeStyle;rounded=0;orthogonalLoop=1;jettySize=auto;html=1;" edge="1" parent="1" source="bFcc6GtcCGzFVjIWoyIu-29" target="bFcc6GtcCGzFVjIWoyIu-33">
          <mxGeometry relative="1" as="geometry" />
        </mxCell>
        <mxCell id="bFcc6GtcCGzFVjIWoyIu-36" style="edgeStyle=orthogonalEdgeStyle;rounded=0;orthogonalLoop=1;jettySize=auto;html=1;exitX=0;exitY=1;exitDx=0;exitDy=0;entryX=1;entryY=0.5;entryDx=0;entryDy=0;" edge="1" parent="1" source="bFcc6GtcCGzFVjIWoyIu-29" target="bFcc6GtcCGzFVjIWoyIu-35">
          <mxGeometry relative="1" as="geometry" />
        </mxCell>
        <mxCell id="bFcc6GtcCGzFVjIWoyIu-38" style="edgeStyle=orthogonalEdgeStyle;rounded=0;orthogonalLoop=1;jettySize=auto;html=1;exitX=0.5;exitY=1;exitDx=0;exitDy=0;entryX=0.5;entryY=0;entryDx=0;entryDy=0;" edge="1" parent="1" source="bFcc6GtcCGzFVjIWoyIu-29" target="bFcc6GtcCGzFVjIWoyIu-37">
          <mxGeometry relative="1" as="geometry" />
        </mxCell>
        <mxCell id="bFcc6GtcCGzFVjIWoyIu-29" value="Address" style="whiteSpace=wrap;html=1;rounded=0;" vertex="1" parent="1">
          <mxGeometry y="680" width="120" height="60" as="geometry" />
        </mxCell>
        <mxCell id="bFcc6GtcCGzFVjIWoyIu-33" value="city" style="ellipse;whiteSpace=wrap;html=1;rounded=0;" vertex="1" parent="1">
          <mxGeometry x="-150" y="670" width="50" height="50" as="geometry" />
        </mxCell>
        <mxCell id="bFcc6GtcCGzFVjIWoyIu-35" value="Sate" style="ellipse;whiteSpace=wrap;html=1;rounded=0;" vertex="1" parent="1">
          <mxGeometry x="-140" y="750" width="50" height="50" as="geometry" />
        </mxCell>
        <mxCell id="bFcc6GtcCGzFVjIWoyIu-37" value="zip" style="ellipse;whiteSpace=wrap;html=1;rounded=0;" vertex="1" parent="1">
          <mxGeometry x="20" y="780" width="50" height="50" as="geometry" />
        </mxCell>
        <mxCell id="bFcc6GtcCGzFVjIWoyIu-40" style="edgeStyle=orthogonalEdgeStyle;rounded=0;orthogonalLoop=1;jettySize=auto;html=1;entryX=0.087;entryY=-0.053;entryDx=0;entryDy=0;entryPerimeter=0;" edge="1" parent="1" source="bFcc6GtcCGzFVjIWoyIu-14" target="bFcc6GtcCGzFVjIWoyIu-29">
          <mxGeometry relative="1" as="geometry" />
        </mxCell>
        <mxCell id="bFcc6GtcCGzFVjIWoyIu-48" style="edgeStyle=orthogonalEdgeStyle;rounded=0;orthogonalLoop=1;jettySize=auto;html=1;exitX=1;exitY=0.5;exitDx=0;exitDy=0;entryX=0.5;entryY=1;entryDx=0;entryDy=0;" edge="1" parent="1" source="bFcc6GtcCGzFVjIWoyIu-41" target="bFcc6GtcCGzFVjIWoyIu-43">
          <mxGeometry relative="1" as="geometry" />
        </mxCell>
        <mxCell id="bFcc6GtcCGzFVjIWoyIu-54" value="" style="edgeStyle=orthogonalEdgeStyle;rounded=0;orthogonalLoop=1;jettySize=auto;html=1;" edge="1" parent="1" source="bFcc6GtcCGzFVjIWoyIu-41" target="bFcc6GtcCGzFVjIWoyIu-53">
          <mxGeometry relative="1" as="geometry" />
        </mxCell>
        <mxCell id="bFcc6GtcCGzFVjIWoyIu-41" value="policy_holder" style="rhombus;whiteSpace=wrap;html=1;" vertex="1" parent="1">
          <mxGeometry x="410" y="150" width="80" height="80" as="geometry" />
        </mxCell>
        <mxCell id="bFcc6GtcCGzFVjIWoyIu-42" style="edgeStyle=orthogonalEdgeStyle;rounded=0;orthogonalLoop=1;jettySize=auto;html=1;entryX=0.915;entryY=0;entryDx=0;entryDy=0;entryPerimeter=0;" edge="1" parent="1" source="bFcc6GtcCGzFVjIWoyIu-41" target="bFcc6GtcCGzFVjIWoyIu-16">
          <mxGeometry relative="1" as="geometry" />
        </mxCell>
        <mxCell id="bFcc6GtcCGzFVjIWoyIu-49" style="edgeStyle=orthogonalEdgeStyle;rounded=0;orthogonalLoop=1;jettySize=auto;html=1;exitX=0;exitY=0.5;exitDx=0;exitDy=0;" edge="1" parent="1" source="bFcc6GtcCGzFVjIWoyIu-43" target="bFcc6GtcCGzFVjIWoyIu-45">
          <mxGeometry relative="1" as="geometry" />
        </mxCell>
        <mxCell id="bFcc6GtcCGzFVjIWoyIu-51" style="edgeStyle=orthogonalEdgeStyle;rounded=0;orthogonalLoop=1;jettySize=auto;html=1;exitX=0.75;exitY=0;exitDx=0;exitDy=0;entryX=0.5;entryY=1;entryDx=0;entryDy=0;" edge="1" parent="1" source="bFcc6GtcCGzFVjIWoyIu-43" target="bFcc6GtcCGzFVjIWoyIu-46">
          <mxGeometry relative="1" as="geometry" />
        </mxCell>
        <mxCell id="bFcc6GtcCGzFVjIWoyIu-52" style="edgeStyle=orthogonalEdgeStyle;rounded=0;orthogonalLoop=1;jettySize=auto;html=1;exitX=1;exitY=0.5;exitDx=0;exitDy=0;entryX=0;entryY=0.5;entryDx=0;entryDy=0;" edge="1" parent="1" source="bFcc6GtcCGzFVjIWoyIu-43" target="bFcc6GtcCGzFVjIWoyIu-47">
          <mxGeometry relative="1" as="geometry" />
        </mxCell>
        <mxCell id="bFcc6GtcCGzFVjIWoyIu-43" value="policy" style="rounded=0;whiteSpace=wrap;html=1;" vertex="1" parent="1">
          <mxGeometry x="540" y="80" width="120" height="60" as="geometry" />
        </mxCell>
        <mxCell id="bFcc6GtcCGzFVjIWoyIu-44" value="coverage" style="ellipse;whiteSpace=wrap;html=1;" vertex="1" parent="1">
          <mxGeometry x="470" y="20" width="80" height="40" as="geometry" />
        </mxCell>
        <mxCell id="bFcc6GtcCGzFVjIWoyIu-45" value="type" style="ellipse;whiteSpace=wrap;html=1;" vertex="1" parent="1">
          <mxGeometry x="440" y="80" width="80" height="40" as="geometry" />
        </mxCell>
        <mxCell id="bFcc6GtcCGzFVjIWoyIu-46" value="deductables" style="ellipse;whiteSpace=wrap;html=1;" vertex="1" parent="1">
          <mxGeometry x="590" y="10" width="80" height="40" as="geometry" />
        </mxCell>
        <mxCell id="bFcc6GtcCGzFVjIWoyIu-47" value="issued date" style="ellipse;whiteSpace=wrap;html=1;" vertex="1" parent="1">
          <mxGeometry x="700" y="80" width="80" height="40" as="geometry" />
        </mxCell>
        <mxCell id="bFcc6GtcCGzFVjIWoyIu-50" style="edgeStyle=orthogonalEdgeStyle;rounded=0;orthogonalLoop=1;jettySize=auto;html=1;exitX=0.25;exitY=0;exitDx=0;exitDy=0;entryX=0.955;entryY=0.68;entryDx=0;entryDy=0;entryPerimeter=0;" edge="1" parent="1" source="bFcc6GtcCGzFVjIWoyIu-43" target="bFcc6GtcCGzFVjIWoyIu-44">
          <mxGeometry relative="1" as="geometry" />
        </mxCell>
        <mxCell id="bFcc6GtcCGzFVjIWoyIu-63" style="edgeStyle=orthogonalEdgeStyle;rounded=0;orthogonalLoop=1;jettySize=auto;html=1;exitX=1;exitY=1;exitDx=0;exitDy=0;" edge="1" parent="1" source="bFcc6GtcCGzFVjIWoyIu-53" target="bFcc6GtcCGzFVjIWoyIu-59">
          <mxGeometry relative="1" as="geometry" />
        </mxCell>
        <mxCell id="bFcc6GtcCGzFVjIWoyIu-65" style="edgeStyle=orthogonalEdgeStyle;rounded=0;orthogonalLoop=1;jettySize=auto;html=1;exitX=0;exitY=1;exitDx=0;exitDy=0;" edge="1" parent="1" source="bFcc6GtcCGzFVjIWoyIu-53">
          <mxGeometry relative="1" as="geometry">
            <mxPoint x="460" y="400" as="targetPoint" />
          </mxGeometry>
        </mxCell>
        <mxCell id="bFcc6GtcCGzFVjIWoyIu-53" value="Eligibility Summary" style="whiteSpace=wrap;html=1;" vertex="1" parent="1">
          <mxGeometry x="540" y="300" width="120" height="60" as="geometry" />
        </mxCell>
        <mxCell id="bFcc6GtcCGzFVjIWoyIu-57" value="benefits" style="ellipse;whiteSpace=wrap;html=1;" vertex="1" parent="1">
          <mxGeometry x="400" y="405" width="120" height="50" as="geometry" />
        </mxCell>
        <mxCell id="bFcc6GtcCGzFVjIWoyIu-85" style="edgeStyle=orthogonalEdgeStyle;rounded=0;orthogonalLoop=1;jettySize=auto;html=1;exitX=0.5;exitY=1;exitDx=0;exitDy=0;entryX=0.5;entryY=0;entryDx=0;entryDy=0;" edge="1" parent="1" source="bFcc6GtcCGzFVjIWoyIu-58" target="bFcc6GtcCGzFVjIWoyIu-80">
          <mxGeometry relative="1" as="geometry" />
        </mxCell>
        <mxCell id="bFcc6GtcCGzFVjIWoyIu-58" value="plan information" style="ellipse;whiteSpace=wrap;html=1;" vertex="1" parent="1">
          <mxGeometry x="580" y="410" width="120" height="50" as="geometry" />
        </mxCell>
        <mxCell id="bFcc6GtcCGzFVjIWoyIu-59" value="coverage details" style="ellipse;whiteSpace=wrap;html=1;" vertex="1" parent="1">
          <mxGeometry x="760" y="390" width="120" height="50" as="geometry" />
        </mxCell>
        <mxCell id="bFcc6GtcCGzFVjIWoyIu-64" style="edgeStyle=orthogonalEdgeStyle;rounded=0;orthogonalLoop=1;jettySize=auto;html=1;exitX=0.5;exitY=1;exitDx=0;exitDy=0;entryX=0.58;entryY=0.072;entryDx=0;entryDy=0;entryPerimeter=0;" edge="1" parent="1" source="bFcc6GtcCGzFVjIWoyIu-53" target="bFcc6GtcCGzFVjIWoyIu-58">
          <mxGeometry relative="1" as="geometry" />
        </mxCell>
        <mxCell id="bFcc6GtcCGzFVjIWoyIu-75" style="edgeStyle=orthogonalEdgeStyle;rounded=0;orthogonalLoop=1;jettySize=auto;html=1;exitX=0.5;exitY=1;exitDx=0;exitDy=0;entryX=0.5;entryY=0;entryDx=0;entryDy=0;" edge="1" parent="1" source="bFcc6GtcCGzFVjIWoyIu-67" target="bFcc6GtcCGzFVjIWoyIu-68">
          <mxGeometry relative="1" as="geometry" />
        </mxCell>
        <mxCell id="bFcc6GtcCGzFVjIWoyIu-67" value="req date" style="rounded=0;whiteSpace=wrap;html=1;" vertex="1" parent="1">
          <mxGeometry x="330" y="490" width="90" height="30" as="geometry" />
        </mxCell>
        <mxCell id="bFcc6GtcCGzFVjIWoyIu-76" style="edgeStyle=orthogonalEdgeStyle;rounded=0;orthogonalLoop=1;jettySize=auto;html=1;exitX=0.5;exitY=1;exitDx=0;exitDy=0;entryX=0.5;entryY=0;entryDx=0;entryDy=0;" edge="1" parent="1" source="bFcc6GtcCGzFVjIWoyIu-68" target="bFcc6GtcCGzFVjIWoyIu-69">
          <mxGeometry relative="1" as="geometry" />
        </mxCell>
        <mxCell id="bFcc6GtcCGzFVjIWoyIu-68" value="member name" style="rounded=0;whiteSpace=wrap;html=1;" vertex="1" parent="1">
          <mxGeometry x="330" y="550" width="90" height="30" as="geometry" />
        </mxCell>
        <mxCell id="bFcc6GtcCGzFVjIWoyIu-77" style="edgeStyle=orthogonalEdgeStyle;rounded=0;orthogonalLoop=1;jettySize=auto;html=1;exitX=0.5;exitY=1;exitDx=0;exitDy=0;entryX=0.5;entryY=0;entryDx=0;entryDy=0;" edge="1" parent="1" source="bFcc6GtcCGzFVjIWoyIu-69" target="bFcc6GtcCGzFVjIWoyIu-72">
          <mxGeometry relative="1" as="geometry" />
        </mxCell>
        <mxCell id="bFcc6GtcCGzFVjIWoyIu-69" value="mebmber id" style="rounded=0;whiteSpace=wrap;html=1;" vertex="1" parent="1">
          <mxGeometry x="330" y="610" width="95" height="20" as="geometry" />
        </mxCell>
        <mxCell id="bFcc6GtcCGzFVjIWoyIu-78" style="edgeStyle=orthogonalEdgeStyle;rounded=0;orthogonalLoop=1;jettySize=auto;html=1;exitX=0.5;exitY=1;exitDx=0;exitDy=0;entryX=0.5;entryY=0;entryDx=0;entryDy=0;" edge="1" parent="1" source="bFcc6GtcCGzFVjIWoyIu-72" target="bFcc6GtcCGzFVjIWoyIu-73">
          <mxGeometry relative="1" as="geometry" />
        </mxCell>
        <mxCell id="bFcc6GtcCGzFVjIWoyIu-72" value="dob" style="rounded=0;whiteSpace=wrap;html=1;" vertex="1" parent="1">
          <mxGeometry x="332.5" y="650" width="90" height="30" as="geometry" />
        </mxCell>
        <mxCell id="bFcc6GtcCGzFVjIWoyIu-73" value="coverage" style="rounded=0;whiteSpace=wrap;html=1;" vertex="1" parent="1">
          <mxGeometry x="332.5" y="700" width="90" height="30" as="geometry" />
        </mxCell>
        <mxCell id="bFcc6GtcCGzFVjIWoyIu-74" style="edgeStyle=orthogonalEdgeStyle;rounded=0;orthogonalLoop=1;jettySize=auto;html=1;exitX=0;exitY=1;exitDx=0;exitDy=0;entryX=0.609;entryY=-0.067;entryDx=0;entryDy=0;entryPerimeter=0;" edge="1" parent="1" source="bFcc6GtcCGzFVjIWoyIu-57" target="bFcc6GtcCGzFVjIWoyIu-67">
          <mxGeometry relative="1" as="geometry" />
        </mxCell>
        <mxCell id="bFcc6GtcCGzFVjIWoyIu-79" value="effective date" style="rounded=0;whiteSpace=wrap;html=1;" vertex="1" parent="1">
          <mxGeometry x="335" y="750" width="90" height="30" as="geometry" />
        </mxCell>
        <mxCell id="bFcc6GtcCGzFVjIWoyIu-86" style="edgeStyle=orthogonalEdgeStyle;rounded=0;orthogonalLoop=1;jettySize=auto;html=1;exitX=0.5;exitY=1;exitDx=0;exitDy=0;entryX=0.5;entryY=0;entryDx=0;entryDy=0;" edge="1" parent="1" source="bFcc6GtcCGzFVjIWoyIu-80" target="bFcc6GtcCGzFVjIWoyIu-81">
          <mxGeometry relative="1" as="geometry" />
        </mxCell>
        <mxCell id="bFcc6GtcCGzFVjIWoyIu-80" value="service yeaar" style="rounded=0;whiteSpace=wrap;html=1;" vertex="1" parent="1">
          <mxGeometry x="595" y="480" width="90" height="30" as="geometry" />
        </mxCell>
        <mxCell id="bFcc6GtcCGzFVjIWoyIu-87" style="edgeStyle=orthogonalEdgeStyle;rounded=0;orthogonalLoop=1;jettySize=auto;html=1;exitX=0.5;exitY=1;exitDx=0;exitDy=0;entryX=0.5;entryY=0;entryDx=0;entryDy=0;" edge="1" parent="1" source="bFcc6GtcCGzFVjIWoyIu-81" target="bFcc6GtcCGzFVjIWoyIu-82">
          <mxGeometry relative="1" as="geometry" />
        </mxCell>
        <mxCell id="bFcc6GtcCGzFVjIWoyIu-81" value="plan max" style="rounded=0;whiteSpace=wrap;html=1;" vertex="1" parent="1">
          <mxGeometry x="595" y="530" width="90" height="30" as="geometry" />
        </mxCell>
        <mxCell id="bFcc6GtcCGzFVjIWoyIu-88" style="edgeStyle=orthogonalEdgeStyle;rounded=0;orthogonalLoop=1;jettySize=auto;html=1;exitX=0.5;exitY=1;exitDx=0;exitDy=0;entryX=0.5;entryY=0;entryDx=0;entryDy=0;" edge="1" parent="1" source="bFcc6GtcCGzFVjIWoyIu-82" target="bFcc6GtcCGzFVjIWoyIu-83">
          <mxGeometry relative="1" as="geometry" />
        </mxCell>
        <mxCell id="bFcc6GtcCGzFVjIWoyIu-82" value="individual ded" style="rounded=0;whiteSpace=wrap;html=1;" vertex="1" parent="1">
          <mxGeometry x="595" y="580" width="90" height="30" as="geometry" />
        </mxCell>
        <mxCell id="bFcc6GtcCGzFVjIWoyIu-89" style="edgeStyle=orthogonalEdgeStyle;rounded=0;orthogonalLoop=1;jettySize=auto;html=1;exitX=0.5;exitY=1;exitDx=0;exitDy=0;entryX=0.5;entryY=0;entryDx=0;entryDy=0;" edge="1" parent="1" source="bFcc6GtcCGzFVjIWoyIu-83" target="bFcc6GtcCGzFVjIWoyIu-84">
          <mxGeometry relative="1" as="geometry" />
        </mxCell>
        <mxCell id="bFcc6GtcCGzFVjIWoyIu-83" value="fam ded" style="rounded=0;whiteSpace=wrap;html=1;" vertex="1" parent="1">
          <mxGeometry x="595" y="630" width="90" height="30" as="geometry" />
        </mxCell>
        <mxCell id="bFcc6GtcCGzFVjIWoyIu-84" value="studen eli" style="rounded=0;whiteSpace=wrap;html=1;" vertex="1" parent="1">
          <mxGeometry x="600" y="680" width="90" height="30" as="geometry" />
        </mxCell>
        <mxCell id="bFcc6GtcCGzFVjIWoyIu-91" value="" style="edgeStyle=orthogonalEdgeStyle;rounded=0;orthogonalLoop=1;jettySize=auto;html=1;" edge="1" parent="1" source="bFcc6GtcCGzFVjIWoyIu-90" target="bFcc6GtcCGzFVjIWoyIu-59">
          <mxGeometry relative="1" as="geometry" />
        </mxCell>
        <mxCell id="bFcc6GtcCGzFVjIWoyIu-90" value="all dental codes with coverage&amp;nbsp;" style="rounded=0;whiteSpace=wrap;html=1;" vertex="1" parent="1">
          <mxGeometry x="780" y="480" width="90" height="30" as="geometry" />
        </mxCell>
      </root>
    </mxGraphModel>
  </diagram>
</mxfile>
